<?xml version="1.0" encoding="utf-8"?>
<!-- Generator: Adobe Illustrator 24.2.3, SVG Export Plug-In . SVG Version: 6.00 Build 0)  -->
<svg version="1.1" id="Layer_1" xmlns="http://www.w3.org/2000/svg" xmlns:xlink="http://www.w3.org/1999/xlink" x="0px" y="0px"
	 viewBox="0 0 100 100" style="enable-background:new 0 0 100 100;" xml:space="preserve">
<style type="text/css">
	.st0{fill:#FFFFFF;}
</style>
<g>
	<path class="st0" d="M30.5,14.5c4.9-5.2,11.6-7.8,20.2-7.8c7.9,0,14.3,2.2,19,6.7c4.8,4.5,7.2,10.2,7.2,17.1
		c0,4.2-0.9,7.6-2.6,10.3c-1.7,2.6-5.3,6.5-10.6,11.6c-3.9,3.7-6.4,6.8-7.6,9.4c-1.2,2.6-1.8,6.3-1.8,11.4H43.7
		c0-5.7,0.7-10.3,2-13.7c1.4-3.5,4.4-7.5,9-12l4.9-4.7c1.5-1.4,2.6-2.8,3.6-4.2c1.7-2.6,2.5-5.3,2.5-8c0-3.9-1.2-7.3-3.6-10.1
		c-2.4-2.9-6.3-4.3-11.8-4.3c-6.8,0-11.5,2.5-14.1,7.4c-1.5,2.7-2.3,6.7-2.5,11.9H23.1C23.1,26.6,25.6,19.7,30.5,14.5z M43.4,83
		h11.9v12.4H43.4V83z"/>
</g>
</svg>
